# xmcd
#
# Track frame offsets:
#	151
#	12452
#	29237
#	48644
#	62438
#	74705
#	89789
#	102527
#	120083
#	132688
#	154583
#	164811
#	183515
#	203241
#	217533
#	232887
#	248392
#	265667
#	282387
#
# Disc length: 3780 seconds
# Revision: 0
# Processed by: cddbd v1.5.2PL0 Copyright (c) Steve Scherf et al.
# Submitted via: dBpowerAMP V12.0
#
DISCID=1a0ec213
DTITLE=Annie Proulx - That Old Ace In The Hole
DYEAR=1900
DGENRE=AudioBook
TTITLE0=06-01
TTITLE1=06-02
TTITLE2=06-03
TTITLE3=06-04
TTITLE4=06-05
TTITLE5=06-06
TTITLE6=06-07
TTITLE7=06-08
TTITLE8=06-09
TTITLE9=06-10
TTITLE10=06-11
TTITLE11=06-12
TTITLE12=06-13
TTITLE13=06-14
TTITLE14=06-15
TTITLE15=06-16
TTITLE16=06-17
TTITLE17=06-18
TTITLE18=06-19
EXTD=
EXTT0=
EXTT1=
EXTT2=
EXTT3=
EXTT4=
EXTT5=
EXTT6=
EXTT7=
EXTT8=
EXTT9=
EXTT10=
EXTT11=
EXTT12=
EXTT13=
EXTT14=
EXTT15=
EXTT16=
EXTT17=
EXTT18=
PLAYORDER=
